<svg width="480" height="480" viewBox="0 0 480 480" fill="none" xmlns="http://www.w3.org/2000/svg">
<g clip-path="url(#clip0_20_48)">
<path d="M369.937 4C316.533 49.4345 273.92 108.436 258.096 177.255C245.167 233.48 257.151 295.061 232.348 348.408C219.003 377.111 199.784 402.082 176.714 423.902C153.993 445.393 128.707 460.792 102 476.39" stroke="black" stroke-width="10" stroke-linecap="round"/>
<path d="M367.13 9.01004C366.164 11.9356 363.126 14.4553 361.46 17.0037C355.993 25.3617 350.575 33.67 344.896 41.8919C326.067 69.1557 310.882 99.8243 297.846 130.276C285.252 159.697 273.718 190.701 271.121 222.856C269.346 244.83 266.862 266.628 264.608 288.563C262.498 309.093 258.313 329.354 248.719 347.807C240.506 363.601 228.315 378.628 216.322 391.687C203.018 406.175 187.346 419.328 171.574 430.975C165.763 435.267 159.066 442.648 152.878 445.772" stroke="black" stroke-width="10" stroke-linecap="round"/>
<path d="M377.179 108.294C330.489 121.058 319.076 178.455 324.534 219.972C327.527 242.741 336.591 263.983 340.741 286.491C346.214 316.177 345.907 348.337 333.729 376.64C311.714 427.81 256.073 438.762 207.519 451.85" stroke="black" stroke-width="10" stroke-linecap="round"/>
<path d="M323.384 190.093C322.759 206.764 320.348 223.517 319.246 240.195C317.695 263.674 315.819 286.795 312.005 310.065C303.658 360.993 278.867 429.619 222.002 443.67" stroke="black" stroke-width="10" stroke-linecap="round"/>
<path d="M153.725 404.816C147.286 403.543 142.698 397.904 138.552 393.341C128.444 382.215 123.412 372.264 120.161 357.611C115.257 335.511 120.827 317.945 131.885 298.477C135.155 292.72 140.371 280.186 148.897 280.186C152.821 280.186 144.114 296.533 143.667 297.568C139.233 307.848 127.174 326.295 138.552 335.855C150.061 345.523 164.101 341.595 171.139 328.924C178.428 315.802 180.703 300.178 183.036 285.639C185.918 267.682 188.719 249.859 192.002 232.015" stroke="black" stroke-width="10" stroke-linecap="round"/>
<path d="M152.878 406.067C156.777 401.19 161.525 397.181 165.579 392.444C173.659 383 179.079 371.49 182.683 359.589C194.682 319.967 193.404 275.028 192.505 234.009" stroke="black" stroke-width="10" stroke-linecap="round"/>
</g>
<defs>
<clipPath id="clip0_20_48">
<rect width="480" height="480" fill="white"/>
</clipPath>
</defs>
</svg>
